<svg version="1.0" xmlns="http://www.w3.org/2000/svg"
 width="120.000000pt" height="130.000000pt" viewBox="0 0 120.000000 130.000000"
 preserveAspectRatio="xMidYMid meet">
<metadata>
Created by potrace 1.16, written by Peter Selinger 2001-2019
</metadata>
<g transform="translate(0.000000,130.000000) scale(0.003000,-0.003250)"
fill="#0a0a0a" stroke="none">
<path d="M10813 24056 c-358 -55 -654 -104 -657 -107 -3 -3 9 -41 28 -85 71
-169 149 -429 190 -634 134 -666 50 -1256 -244 -1732 -125 -201 -319 -409
-520 -559 -140 -104 -190 -137 -351 -224 -68 -38 -125 -69 -126 -69 -1 -1 -56
-226 -123 -501 -66 -275 -123 -508 -126 -518 -5 -16 26 -17 592 -15 l598 3
713 2264 c392 1246 713 2269 713 2273 0 12 25 15 -687 -96z"/>
<path d="M6122 24010 c-233 -42 -427 -81 -432 -86 -8 -9 -1355 -4548 -1367
-4607 l-6 -27 404 2 403 3 728 2365 c400 1301 732 2380 737 2398 9 31 8 32
-17 31 -15 -1 -217 -36 -450 -79z"/>
<path d="M8251 23705 c-453 -99 -776 -452 -831 -910 -43 -359 114 -728 402
-945 368 -277 857 -288 1235 -28 147 102 292 279 362 444 62 146 76 221 76
414 -1 191 -13 260 -73 405 -129 312 -415 548 -746 616 -110 23 -328 25 -425
4z"/>
<path d="M16291 23605 c-157 -34 -287 -133 -360 -274 -31 -61 -120 -349 -440
-1439 -221 -749 -401 -1369 -401 -1377 0 -13 61 -15 466 -13 l467 3 83 310
c243 896 362 1355 394 1518 l12 58 72 -148 c138 -280 766 -1463 822 -1549 50
-76 145 -161 216 -194 108 -51 337 -62 479 -25 93 25 193 99 263 194 51 70
443 802 687 1286 120 237 220 423 222 415 3 -8 21 -88 42 -178 20 -89 114
-449 209 -800 95 -350 188 -694 207 -764 l34 -128 477 0 476 0 -9 33 c-5 17
-182 635 -394 1372 -299 1042 -393 1358 -424 1420 -102 207 -323 320 -563 288
-46 -6 -108 -21 -138 -32 -73 -28 -175 -106 -232 -178 -64 -82 -844 -1464
-979 -1735 -35 -71 -66 -128 -69 -128 -3 0 -34 57 -69 128 -120 241 -891 1612
-967 1719 -131 184 -354 267 -583 218z"/>
<path d="M27490 23614 c-468 -32 -695 -69 -970 -160 -571 -189 -888 -536 -980
-1070 -39 -224 -36 -524 6 -733 126 -624 560 -987 1354 -1130 544 -98 1310
-88 1820 25 258 57 522 163 699 281 223 149 395 373 480 629 114 341 114 817
1 1154 -195 585 -733 901 -1680 990 -117 11 -631 21 -730 14z m686 -814 c175
-14 262 -27 374 -56 256 -67 404 -206 456 -430 24 -103 33 -260 23 -386 -16
-201 -67 -334 -165 -431 -177 -176 -462 -237 -1119 -237 -647 0 -936 61 -1111
236 -97 97 -144 211 -165 409 -22 196 6 407 71 540 106 218 324 319 760 354
152 12 725 13 876 1z"/>
<path d="M30830 23604 c-194 -42 -331 -184 -375 -390 -12 -59 -15 -269 -15
-1391 l0 -1323 435 0 435 0 2 891 3 891 901 -809 c495 -444 931 -836 970 -871
131 -119 279 -166 446 -143 225 31 357 148 425 378 16 54 18 157 21 1396 l2
1337 -435 0 -435 0 -2 -894 -3 -893 -835 750 c-1130 1014 -1103 991 -1170
1026 -107 57 -240 73 -370 45z"/>
<path d="M13770 22035 l0 -1535 480 0 480 0 0 1535 0 1535 -480 0 -480 0 0
-1535z"/>
<path d="M21350 23175 c-168 -217 -306 -399 -308 -404 -2 -7 452 -11 1420 -13
l1423 -3 65 -22 c136 -46 225 -123 252 -216 17 -58 14 -164 -6 -209 -36 -82
-121 -150 -248 -196 l-73 -27 -1417 -3 -1418 -2 0 -790 0 -790 475 0 475 0 0
405 0 405 724 0 724 0 339 -402 339 -403 638 -3 c414 -1 637 1 634 8 -12 35
-765 809 -912 938 -39 34 -54 53 -45 56 8 3 41 12 74 21 268 74 508 285 614
539 57 137 75 233 75 406 2 320 -71 500 -285 706 -237 227 -564 344 -1073 384
-76 6 -549 10 -1155 9 l-1026 0 -305 -394z"/>
<path d="M7057 21013 c-6 -10 -897 -2889 -897 -2897 0 -3 420 -6 934 -6 882 0
935 1 940 18 109 372 685 2416 682 2419 -3 3 -33 0 -68 -6 -550 -94 -1134 64
-1496 404 -81 76 -87 81 -95 68z"/>
<path d="M28989 19567 c-53 -20 -99 -51 -141 -94 -20 -21 -208 -281 -419 -578
-210 -297 -420 -593 -465 -657 l-84 -118 273 1 272 0 330 468 329 469 90 -132
c49 -72 136 -198 192 -281 l103 -150 -302 -3 -302 -3 -132 -182 -132 -182 420
-3 c230 -1 607 -1 837 0 l418 3 -452 655 c-249 360 -473 677 -500 704 -26 27
-68 58 -93 69 -58 26 -190 33 -242 14z"/>
<path d="M24400 19374 c-80 -102 -146 -190 -148 -195 -2 -5 264 -9 655 -9
l659 0 44 -22 c111 -57 121 -187 19 -255 l-43 -28 -668 -3 -668 -3 0 -369 0
-370 225 0 225 0 0 179 0 179 463 5 c430 3 468 5 543 25 149 39 278 111 343
193 81 100 121 251 101 387 -37 263 -237 424 -575 462 -49 5 -301 10 -560 10
l-470 -1 -145 -185z"/>
<path d="M26370 18840 l0 -720 639 0 638 0 142 183 142 182 -555 3 -556 2 0
535 0 535 -225 0 -225 0 0 -720z"/>
<path d="M30865 19550 c-324 -35 -488 -198 -473 -471 11 -187 113 -306 314
-365 51 -15 126 -18 574 -23 559 -7 547 -5 571 -63 13 -32 4 -80 -19 -101 -38
-34 -92 -37 -654 -37 l-558 0 -141 -182 -141 -183 743 -3 c839 -3 840 -3 986
68 138 68 202 161 223 327 18 140 -20 276 -96 342 -50 44 -137 86 -224 107
-66 15 -134 18 -555 21 -264 2 -495 6 -513 9 -58 9 -89 69 -66 129 17 44 33
45 598 45 l535 0 145 190 c80 104 146 192 146 195 0 8 -1317 3 -1395 -5z"/>
<path d="M32367 19380 c-76 -99 -140 -187 -143 -195 -5 -13 34 -15 330 -15
l336 0 0 -525 0 -525 225 0 225 0 0 525 0 525 255 0 254 0 146 188 c79 103
145 190 145 195 0 4 -368 7 -817 7 l-818 0 -138 -180z"/>
</g>
</svg>
